<svg width="24" height="23" viewBox="0 0 24 23" fill="none" xmlns="http://www.w3.org/2000/svg">
<path d="M23.4972 18.8819L16.8659 12.7437L13.4346 15.9175L20.0707 22.0558C20.6153 22.5595 21.5117 22.5595 22.0562 22.0558L23.4972 20.7229C24.0418 20.2148 24.0418 19.3812 23.4972 18.8819Z" fill="white"/>
<path d="M13.5847 14.5492L15.3823 12.8865L13.3341 10.992C15.2715 8.41098 15.0016 4.83591 12.5148 2.53573C9.72449 -0.0452767 5.18956 -0.0452767 2.39438 2.53573C-0.400796 5.11674 -0.395977 9.31144 2.39438 11.8969C4.88112 14.1971 8.74618 14.4467 11.5365 12.6547L13.5847 14.5492ZM3.78233 10.5953C1.75824 8.72302 1.75824 5.68733 3.78233 3.81955C5.80642 1.94732 9.08835 1.94732 11.1076 3.81955C13.1317 5.69179 13.1317 8.72748 11.1076 10.5953C9.08835 12.4675 5.80642 12.4675 3.78233 10.5953Z" fill="white"/>
</svg>
